<?xml version="1.0" standalone="no"?>
<!DOCTYPE svg PUBLIC "-//W3C//DTD SVG 20010904//EN"
 "http://www.w3.org/TR/2001/REC-SVG-20010904/DTD/svg10.dtd">
<svg version="1.0" xmlns="http://www.w3.org/2000/svg"
 width="150.000000pt" height="150.000000pt" viewBox="0 0 150.000000 150.000000"
 preserveAspectRatio="xMidYMid meet">

<g transform="translate(0.000000,150.000000) scale(0.100000,-0.100000)"
fill="#000000" stroke="none">
<path d="M655 1494 c-11 -2 -44 -9 -74 -15 -256 -52 -484 -274 -557 -544 -59
-214 0 -481 142 -653 134 -160 293 -248 496 -275 351 -45 686 171 803 518 43
129 43 319 -1 454 -78 237 -282 431 -519 495 -59 16 -251 30 -290 20z m128
-158 c50 -47 71 -56 123 -56 46 0 58 5 100 40 49 40 68 48 78 31 14 -21 206
-894 206 -932 0 -58 -55 -136 -112 -158 -35 -13 -239 -23 -257 -11 -12 7 -11
15 10 47 37 57 49 90 49 133 0 34 -3 40 -20 40 -11 0 -22 -6 -24 -12 -2 -7 -9
-31 -15 -54 -15 -58 -50 -105 -96 -131 -38 -22 -49 -23 -288 -23 -252 0 -277
3 -304 39 -15 20 -17 76 -2 103 6 11 25 26 43 33 29 12 50 9 255 -42 196 -49
225 -54 238 -41 25 25 -6 43 -123 72 -60 14 -112 30 -116 34 -5 5 26 159 67
343 42 184 87 383 100 442 14 60 27 112 30 118 10 15 31 10 58 -15z"/>
</g>
</svg>
